  0
SECTION
  2
BLOCKS
  0
ENDSEC
  0
SECTION
  2
ENTITIES
  0
LINE
  8
0
 10
159.775
 20
-17.2228
 11
162.116
 21
-15.8987
  0
LINE
  8
0
 10
162.116
 20
-15.8987
 11
165.59
 21
-14.0124
  0
LINE
  8
0
 10
165.59
 20
-14.0124
 11
169.096
 21
-12.187
  0
LINE
  8
0
 10
169.096
 20
-12.187
 11
172.634
 21
-10.4232
  0
LINE
  8
0
 10
172.634
 20
-10.4232
 11
176.202
 21
-8.7213
  0
LINE
  8
0
 10
176.202
 20
-8.7213
 11
179.799
 21
-7.08195
  0
LINE
  8
0
 10
179.799
 20
-7.08195
 11
183.424
 21
-5.50566
  0
LINE
  8
0
 10
183.424
 20
-5.50566
 11
187.077
 21
-3.99286
  0
LINE
  8
0
 10
187.077
 20
-3.99286
 11
190.755
 21
-2.54404
  0
LINE
  8
0
 10
190.755
 20
-2.54404
 11
194.457
 21
-1.15962
  0
LINE
  8
0
 10
194.457
 20
-1.15962
 11
198.184
 21
0.159943
  0
LINE
  8
0
 10
198.184
 20
0.159943
 11
201.933
 21
1.41429
  0
LINE
  8
0
 10
201.933
 20
1.41429
 11
205.703
 21
2.60301
  0
LINE
  8
0
 10
205.703
 20
2.60301
 11
209.493
 21
3.72577
  0
LINE
  8
0
 10
209.493
 20
3.72577
 11
213.302
 21
4.7822
  0
LINE
  8
0
 10
213.302
 20
4.7822
 11
217.13
 21
5.77197
  0
LINE
  8
0
 10
217.13
 20
5.77197
 11
220.974
 21
6.69481
  0
LINE
  8
0
 10
220.974
 20
6.69481
 11
224.833
 21
7.55043
  0
LINE
  8
0
 10
224.833
 20
7.55043
 11
228.707
 21
8.33855
  0
LINE
  8
0
 10
228.707
 20
8.33855
 11
232.594
 21
9.05894
  0
LINE
  8
0
 10
232.594
 20
9.05894
 11
236.493
 21
9.7114
  0
LINE
  8
0
 10
236.493
 20
9.7114
 11
240.402
 21
10.2957
  0
LINE
  8
0
 10
240.402
 20
10.2957
 11
244.322
 21
10.8117
  0
LINE
  8
0
 10
244.322
 20
10.8117
 11
248.249
 21
11.2592
  0
LINE
  8
0
 10
248.249
 20
11.2592
 11
248.808
 21
11.313
  0
LINE
  8
0
 10
248.808
 20
11.313
 11
248.458
 21
17.9927
  0
LINE
  8
0
 10
248.458
 20
17.9927
 11
261.274
 21
18.5522
  0
LINE
  8
0
 10
261.274
 20
18.5522
 11
274.097
 21
18.888
  0
LINE
  8
0
 10
274.097
 20
18.888
 11
286.925
 21
19
  0
LINE
  8
0
 10
286.925
 20
19
 11
286.925
 21
76.5
  0
LINE
  8
0
 10
286.925
 20
76.5
 11
279.342
 21
76.4338
  0
LINE
  8
0
 10
279.342
 20
76.4338
 11
271.761
 21
76.2353
  0
LINE
  8
0
 10
271.761
 20
76.2353
 11
264.185
 21
75.9045
  0
LINE
  8
0
 10
264.185
 20
75.9045
 11
256.616
 21
75.4416
  0
LINE
  8
0
 10
256.616
 20
75.4416
 11
249.056
 21
74.8466
  0
LINE
  8
0
 10
249.056
 20
74.8466
 11
241.525
 21
74.1215
  0
LINE
  8
0
 10
241.525
 20
74.1215
 11
240.128
 21
87.4186
  0
LINE
  8
0
 10
240.128
 20
87.4186
 11
230.374
 21
86.3072
  0
LINE
  8
0
 10
230.374
 20
86.3072
 11
220.64
 21
85.0258
  0
LINE
  8
0
 10
220.64
 20
85.0258
 11
210.931
 21
83.5747
  0
LINE
  8
0
 10
210.931
 20
83.5747
 11
201.248
 21
81.9544
  0
LINE
  8
0
 10
201.248
 20
81.9544
 11
191.595
 21
80.1653
  0
LINE
  8
0
 10
191.595
 20
80.1653
 11
181.975
 21
78.208
  0
LINE
  8
0
 10
181.975
 20
78.208
 11
172.39
 21
76.0832
  0
LINE
  8
0
 10
172.39
 20
76.0832
 11
162.844
 21
73.7913
  0
LINE
  8
0
 10
162.844
 20
73.7913
 11
153.377
 21
71.343
  0
LINE
  8
0
 10
153.377
 20
71.343
 11
153.375
 21
71.35
  0
LINE
  8
0
 10
153.375
 20
71.35
 11
134.675
 21
66.1
  0
LINE
  8
0
 10
134.675
 20
66.1
 11
152.175
 21
0.799988
  0
LINE
  8
0
 10
152.175
 20
0.799988
 11
148.425
 21
-1.25
  0
LINE
  8
0
 10
148.425
 20
-1.25
 11
158.175
 21
-17.9
  0
LINE
  8
0
 10
158.175
 20
-17.9
 11
159.775
 21
-17.2228
  0
ENDSEC
  0
SECTION
  2
OBJECTS
  0
DICTIONARY
  0
ENDSEC
  0
EOF
