  0
SECTION
  2
BLOCKS
  0
ENDSEC
  0
SECTION
  2
ENTITIES
  0
LINE
  8
0
 10
130.628
 20
-22.5339
 11
132.258
 21
-21.4624
  0
LINE
  8
0
 10
132.258
 20
-21.4624
 11
133.065
 21
-20.4266
  0
LINE
  8
0
 10
133.065
 20
-20.4266
 11
142.815
 21
-3.7766
  0
LINE
  8
0
 10
142.815
 20
-3.7766
 11
143.453
 21
-1.93312
  0
LINE
  8
0
 10
143.453
 20
-1.93312
 11
143.338
 21
0.0143433
  0
LINE
  8
0
 10
143.338
 20
0.0143433
 11
142.485
 21
1.76933
  0
LINE
  8
0
 10
142.485
 20
1.76933
 11
140.898
 21
3.13725
  0
LINE
  8
0
 10
140.898
 20
3.13725
 11
140.597
 21
3.302
  0
LINE
  8
0
 10
140.597
 20
3.302
 11
157.08
 21
64.8057
  0
LINE
  8
0
 10
157.08
 20
64.8057
 11
157.207
 21
66.7524
  0
LINE
  8
0
 10
157.207
 20
66.7524
 11
156.58
 21
68.5998
  0
LINE
  8
0
 10
156.58
 20
68.5998
 11
155.294
 21
70.0666
  0
LINE
  8
0
 10
155.294
 20
70.0666
 11
153.689
 21
70.8699
  0
LINE
  8
0
 10
153.689
 20
70.8699
 11
143.623
 21
33.3057
  0
LINE
  8
0
 10
143.623
 20
33.3057
 11
125.222
 21
38.2363
  0
LINE
  8
0
 10
125.222
 20
38.2363
 11
135.351
 21
76.0376
  0
LINE
  8
0
 10
135.351
 20
76.0376
 11
134.901
 21
76.1639
  0
LINE
  8
0
 10
134.901
 20
76.1639
 11
134.797
 21
76.172
  0
LINE
  8
0
 10
134.797
 20
76.172
 11
134.8
 21
76.1837
  0
LINE
  8
0
 10
134.8
 20
76.1837
 11
125.333
 21
78.6321
  0
LINE
  8
0
 10
125.333
 20
78.6321
 11
125.248
 21
78.6532
  0
LINE
  8
0
 10
125.248
 20
78.6532
 11
115.702
 21
80.945
  0
LINE
  8
0
 10
115.702
 20
80.945
 11
115.617
 21
80.9646
  0
LINE
  8
0
 10
115.617
 20
80.9646
 11
106.033
 21
83.0895
  0
LINE
  8
0
 10
106.033
 20
83.0895
 11
105.947
 21
83.1077
  0
LINE
  8
0
 10
105.947
 20
83.1077
 11
96.3269
 21
85.0649
  0
LINE
  8
0
 10
96.3269
 20
85.0649
 11
96.2412
 21
85.0816
  0
LINE
  8
0
 10
96.2412
 20
85.0816
 11
86.5883
 21
86.8706
  0
LINE
  8
0
 10
86.5883
 20
86.8706
 11
86.5023
 21
86.8858
  0
LINE
  8
0
 10
86.5023
 20
86.8858
 11
76.8196
 21
88.5061
  0
LINE
  8
0
 10
76.8196
 20
88.5061
 11
76.7334
 21
88.5198
  0
LINE
  8
0
 10
76.7334
 20
88.5198
 11
67.0239
 21
89.9709
  0
LINE
  8
0
 10
67.0239
 20
89.9709
 11
66.9375
 21
89.983
  0
LINE
  8
0
 10
66.9375
 20
89.983
 11
57.2041
 21
91.2644
  0
LINE
  8
0
 10
57.2041
 20
91.2644
 11
57.1175
 21
91.2751
  0
LINE
  8
0
 10
57.1175
 20
91.2751
 11
47.3633
 21
92.3864
  0
LINE
  8
0
 10
47.3633
 20
92.3864
 11
45.4191
 21
92.2249
  0
LINE
  8
0
 10
45.4191
 20
92.2249
 11
43.6847
 21
91.3316
  0
LINE
  8
0
 10
43.6847
 20
91.3316
 11
42.4241
 21
89.8426
  0
LINE
  8
0
 10
42.4241
 20
89.8426
 11
41.8246
 21
87.9412
  0
LINE
  8
0
 10
41.8246
 20
87.9412
 11
40.9451
 21
79.5735
  0
LINE
  8
0
 10
40.9451
 20
79.5735
 11
38.3484
 21
79.8236
  0
LINE
  8
0
 10
38.3484
 20
79.8236
 11
38.2615
 21
79.8312
  0
LINE
  8
0
 10
38.2615
 20
79.8312
 11
30.7015
 21
80.4262
  0
LINE
  8
0
 10
30.7015
 20
80.4262
 11
30.6144
 21
80.4323
  0
LINE
  8
0
 10
30.6144
 20
80.4323
 11
23.0452
 21
80.8952
  0
LINE
  8
0
 10
23.0452
 20
80.8952
 11
22.9581
 21
80.8998
  0
LINE
  8
0
 10
22.9581
 20
80.8998
 11
15.3819
 21
81.2305
  0
LINE
  8
0
 10
15.3819
 20
81.2305
 11
15.2947
 21
81.2336
  0
LINE
  8
0
 10
15.2947
 20
81.2336
 11
7.71396
 21
81.4321
  0
LINE
  8
0
 10
7.71396
 20
81.4321
 11
7.62671
 21
81.4336
  0
LINE
  8
0
 10
7.62671
 20
81.4336
 11
0.0436401
 21
81.4998
  0
LINE
  8
0
 10
0.0436401
 20
81.4998
 11
-1.87303
 21
81.1359
  0
LINE
  8
0
 10
-1.87303
 20
81.1359
 11
-3.50455
 21
80.0663
  0
LINE
  8
0
 10
-3.50455
 20
80.0663
 11
-4.60252
 21
78.4537
  0
LINE
  8
0
 10
-4.60252
 20
78.4537
 11
-5
 21
76.5
  0
LINE
  8
0
 10
-5
 20
76.5
 11
-5
 21
19
  0
LINE
  8
0
 10
-5
 20
19
 11
-4.6194
 21
17.0866
  0
LINE
  8
0
 10
-4.6194
 20
17.0866
 11
-3.53554
 21
15.4645
  0
LINE
  8
0
 10
-3.53554
 20
15.4645
 11
-1.91342
 21
14.3806
  0
LINE
  8
0
 10
-1.91342
 20
14.3806
 11
-0.0436401
 21
14.0002
  0
LINE
  8
0
 10
-0.0436401
 20
14.0002
 11
12.7404
 21
13.8886
  0
LINE
  8
0
 10
12.7404
 20
13.8886
 11
25.477
 21
13.5551
  0
LINE
  8
0
 10
25.477
 20
13.5551
 11
33.2098
 21
13.2175
  0
LINE
  8
0
 10
33.2098
 20
13.2175
 11
33.1237
 21
11.5747
  0
LINE
  8
0
 10
33.1237
 20
11.5747
 11
33.4036
 21
9.64398
  0
LINE
  8
0
 10
33.4036
 20
9.64398
 11
34.4011
 21
7.96736
  0
LINE
  8
0
 10
34.4011
 20
7.96736
 11
35.9643
 21
6.80009
  0
LINE
  8
0
 10
35.9643
 20
6.80009
 11
37.6376
 21
6.33604
  0
LINE
  8
0
 10
37.6376
 20
6.33604
 11
38.1526
 21
6.28644
  0
LINE
  8
0
 10
38.1526
 20
6.28644
 11
41.9942
 21
5.84874
  0
LINE
  8
0
 10
41.9942
 20
5.84874
 11
45.8267
 21
5.34421
  0
LINE
  8
0
 10
45.8267
 20
5.34421
 11
49.6506
 21
4.77271
  0
LINE
  8
0
 10
49.6506
 20
4.77271
 11
53.463
 21
4.13474
  0
LINE
  8
0
 10
53.463
 20
4.13474
 11
57.2641
 21
3.43024
  0
LINE
  8
0
 10
57.2641
 20
3.43024
 11
61.0528
 21
2.65941
  0
LINE
  8
0
 10
61.0528
 20
2.65941
 11
64.8264
 21
1.82281
  0
LINE
  8
0
 10
64.8264
 20
1.82281
 11
68.5852
 21
0.92041
  0
LINE
  8
0
 10
68.5852
 20
0.92041
 11
72.3288
 21
-0.0477448
  0
LINE
  8
0
 10
72.3288
 20
-0.0477448
 11
76.0532
 21
-1.0806
  0
LINE
  8
0
 10
76.0532
 20
-1.0806
 11
79.7605
 21
-2.17876
  0
LINE
  8
0
 10
79.7605
 20
-2.17876
 11
83.4467
 21
-3.34103
  0
LINE
  8
0
 10
83.4467
 20
-3.34103
 11
87.1137
 21
-4.56799
  0
LINE
  8
0
 10
87.1137
 20
-4.56799
 11
90.7571
 21
-5.85817
  0
LINE
  8
0
 10
90.7571
 20
-5.85817
 11
94.3788
 21
-7.21228
  0
LINE
  8
0
 10
94.3788
 20
-7.21228
 11
97.9749
 21
-8.62878
  0
LINE
  8
0
 10
97.9749
 20
-8.62878
 11
101.547
 21
-10.1085
  0
LINE
  8
0
 10
101.547
 20
-10.1085
 11
105.092
 21
-11.6496
  0
LINE
  8
0
 10
105.092
 20
-11.6496
 11
108.611
 21
-13.2534
  0
LINE
  8
0
 10
108.611
 20
-13.2534
 11
112.099
 21
-14.9171
  0
LINE
  8
0
 10
112.099
 20
-14.9171
 11
115.558
 21
-16.642
  0
LINE
  8
0
 10
115.558
 20
-16.642
 11
118.988
 21
-18.4272
  0
LINE
  8
0
 10
118.988
 20
-18.4272
 11
122.385
 21
-20.272
  0
LINE
  8
0
 10
122.385
 20
-20.272
 11
124.688
 21
-21.5746
  0
LINE
  8
0
 10
124.688
 20
-21.5746
 11
125.201
 21
-21.8275
  0
LINE
  8
0
 10
125.201
 20
-21.8275
 11
126.801
 21
-22.5047
  0
LINE
  8
0
 10
126.801
 20
-22.5047
 11
128.712
 21
-22.8998
  0
LINE
  8
0
 10
128.712
 20
-22.8998
 11
130.628
 21
-22.5339
  0
LINE
  8
0
 10
47.4941
 20
70.5146
 11
48.957
 21
84.4375
  0
LINE
  8
0
 10
48.957
 20
84.4375
 11
62.8809
 21
82.9736
  0
LINE
  8
0
 10
62.8809
 20
82.9736
 11
61.417
 21
69.0508
  0
LINE
  8
0
 10
61.417
 20
69.0508
 11
47.4941
 21
70.5146
  0
LINE
  8
0
 10
90.0292
 20
81.2946
 11
90.0292
 21
82.7053
  0
LINE
  8
0
 10
90.0292
 20
82.7053
 11
91.3708
 21
83.1413
  0
LINE
  8
0
 10
91.3708
 20
83.1413
 11
92.2
 21
82
  0
LINE
  8
0
 10
92.2
 20
82
 11
91.3708
 21
80.8587
  0
LINE
  8
0
 10
91.3708
 20
80.8587
 11
90.0292
 21
81.2946
  0
LINE
  8
0
 10
69.5195
 20
67.9844
 11
71.71
 21
81.8115
  0
LINE
  8
0
 10
71.71
 20
81.8115
 11
85.5381
 21
79.6221
  0
LINE
  8
0
 10
85.5381
 20
79.6221
 11
83.3477
 21
65.7939
  0
LINE
  8
0
 10
83.3477
 20
65.7939
 11
69.5195
 21
67.9844
  0
LINE
  8
0
 10
-1.97081
 20
76.2946
 11
-1.97081
 21
77.7053
  0
LINE
  8
0
 10
-1.97081
 20
77.7053
 11
-0.629166
 21
78.1413
  0
LINE
  8
0
 10
-0.629166
 20
78.1413
 11
0.199997
 21
77
  0
LINE
  8
0
 10
0.199997
 20
77
 11
-0.629166
 21
75.8587
  0
LINE
  8
0
 10
-0.629166
 20
75.8587
 11
-1.97081
 21
76.2946
  0
LINE
  8
0
 10
91.3828
 20
64.3047
 11
94.2939
 21
77.999
  0
LINE
  8
0
 10
94.2939
 20
77.999
 11
107.988
 21
75.0879
  0
LINE
  8
0
 10
107.988
 20
75.0879
 11
105.077
 21
61.3936
  0
LINE
  8
0
 10
105.077
 20
61.3936
 11
91.3828
 21
64.3047
  0
LINE
  8
0
 10
2.52539
 20
59.6748
 11
2.52539
 21
73.6748
  0
LINE
  8
0
 10
2.52539
 20
73.6748
 11
16.5254
 21
73.6748
  0
LINE
  8
0
 10
16.5254
 20
73.6748
 11
16.5254
 21
59.6748
  0
LINE
  8
0
 10
16.5254
 20
59.6748
 11
2.52539
 21
59.6748
  0
LINE
  8
0
 10
24.6943
 20
59.4609
 11
25.4277
 21
73.4424
  0
LINE
  8
0
 10
25.4277
 20
73.4424
 11
39.4082
 21
72.709
  0
LINE
  8
0
 10
39.4082
 20
72.709
 11
38.6758
 21
58.7285
  0
LINE
  8
0
 10
38.6758
 20
58.7285
 11
24.6943
 21
59.4609
  0
LINE
  8
0
 10
113.024
 20
59.4863
 11
116.647
 21
73.0088
  0
LINE
  8
0
 10
116.647
 20
73.0088
 11
130.17
 21
69.3857
  0
LINE
  8
0
 10
130.17
 20
69.3857
 11
126.547
 21
55.8623
  0
LINE
  8
0
 10
126.547
 20
55.8623
 11
113.024
 21
59.4863
  0
LINE
  8
0
 10
154.029
 20
65.2946
 11
154.029
 21
66.7053
  0
LINE
  8
0
 10
154.029
 20
66.7053
 11
155.371
 21
67.1413
  0
LINE
  8
0
 10
155.371
 20
67.1413
 11
156.2
 21
66
  0
LINE
  8
0
 10
156.2
 20
66
 11
155.371
 21
64.8587
  0
LINE
  8
0
 10
155.371
 20
64.8587
 11
154.029
 21
65.2946
  0
LINE
  8
0
 10
45.5029
 20
51.5684
 11
46.9658
 21
65.4922
  0
LINE
  8
0
 10
46.9658
 20
65.4922
 11
60.8896
 21
64.0283
  0
LINE
  8
0
 10
60.8896
 20
64.0283
 11
59.4258
 21
50.1055
  0
LINE
  8
0
 10
59.4258
 20
50.1055
 11
45.5029
 21
51.5684
  0
LINE
  8
0
 10
66.54
 20
49.1689
 11
68.7295
 21
62.9961
  0
LINE
  8
0
 10
68.7295
 20
62.9961
 11
82.5576
 21
60.8057
  0
LINE
  8
0
 10
82.5576
 20
60.8057
 11
80.3672
 21
46.9785
  0
LINE
  8
0
 10
80.3672
 20
46.9785
 11
66.54
 21
49.1689
  0
LINE
  8
0
 10
87.4229
 20
45.6709
 11
90.333
 21
59.3652
  0
LINE
  8
0
 10
90.333
 20
59.3652
 11
104.027
 21
56.4541
  0
LINE
  8
0
 10
104.027
 20
56.4541
 11
101.117
 21
42.7598
  0
LINE
  8
0
 10
101.117
 20
42.7598
 11
87.4229
 21
45.6709
  0
LINE
  8
0
 10
2.52539
 20
40.625
 11
2.52539
 21
54.625
  0
LINE
  8
0
 10
2.52539
 20
54.625
 11
16.5254
 21
54.625
  0
LINE
  8
0
 10
16.5254
 20
54.625
 11
16.5254
 21
40.625
  0
LINE
  8
0
 10
16.5254
 20
40.625
 11
2.52539
 21
40.625
  0
LINE
  8
0
 10
108.093
 20
41.085
 11
111.717
 21
54.6084
  0
LINE
  8
0
 10
111.717
 20
54.6084
 11
125.24
 21
50.9844
  0
LINE
  8
0
 10
125.24
 20
50.9844
 11
121.616
 21
37.4619
  0
LINE
  8
0
 10
121.616
 20
37.4619
 11
108.093
 21
41.085
  0
LINE
  8
0
 10
23.6973
 20
40.4375
 11
24.4307
 21
54.418
  0
LINE
  8
0
 10
24.4307
 20
54.418
 11
38.4111
 21
53.6855
  0
LINE
  8
0
 10
38.4111
 20
53.6855
 11
37.6787
 21
39.7041
  0
LINE
  8
0
 10
37.6787
 20
39.7041
 11
23.6973
 21
40.4375
  0
LINE
  8
0
 10
43.5117
 20
32.623
 11
44.9746
 21
46.5459
  0
LINE
  8
0
 10
44.9746
 20
46.5459
 11
58.8984
 21
45.083
  0
LINE
  8
0
 10
58.8984
 20
45.083
 11
57.4346
 21
31.1592
  0
LINE
  8
0
 10
57.4346
 20
31.1592
 11
43.5117
 21
32.623
  0
LINE
  8
0
 10
63.5596
 20
30.3535
 11
65.75
 21
44.1807
  0
LINE
  8
0
 10
65.75
 20
44.1807
 11
79.5771
 21
41.9902
  0
LINE
  8
0
 10
79.5771
 20
41.9902
 11
77.3877
 21
28.1631
  0
LINE
  8
0
 10
77.3877
 20
28.1631
 11
63.5596
 21
30.3535
  0
LINE
  8
0
 10
83.4619
 20
27.0371
 11
86.3721
 21
40.7314
  0
LINE
  8
0
 10
86.3721
 20
40.7314
 11
100.067
 21
37.8203
  0
LINE
  8
0
 10
100.067
 20
37.8203
 11
97.1562
 21
24.126
  0
LINE
  8
0
 10
97.1562
 20
24.126
 11
83.4619
 21
27.0371
  0
LINE
  8
0
 10
103.163
 20
22.5967
 11
106.786
 21
36.1191
  0
LINE
  8
0
 10
106.786
 20
36.1191
 11
120.309
 21
32.4961
  0
LINE
  8
0
 10
120.309
 20
32.4961
 11
116.686
 21
18.9727
  0
LINE
  8
0
 10
116.686
 20
18.9727
 11
103.163
 21
22.5967
  0
LINE
  8
0
 10
2.52539
 20
21.5752
 11
2.52539
 21
35.5752
  0
LINE
  8
0
 10
2.52539
 20
35.5752
 11
16.5254
 21
35.5752
  0
LINE
  8
0
 10
16.5254
 20
35.5752
 11
16.5254
 21
21.5752
  0
LINE
  8
0
 10
16.5254
 20
21.5752
 11
2.52539
 21
21.5752
  0
LINE
  8
0
 10
22.7012
 20
21.4131
 11
23.4336
 21
35.3945
  0
LINE
  8
0
 10
23.4336
 20
35.3945
 11
37.4141
 21
34.6611
  0
LINE
  8
0
 10
37.4141
 20
34.6611
 11
36.6816
 21
20.6807
  0
LINE
  8
0
 10
36.6816
 20
20.6807
 11
22.7012
 21
21.4131
  0
LINE
  8
0
 10
125.128
 20
7.41016
 11
130.716
 21
28.2646
  0
LINE
  8
0
 10
130.716
 20
28.2646
 11
140.53
 21
25.6348
  0
LINE
  8
0
 10
140.53
 20
25.6348
 11
134.942
 21
4.78027
  0
LINE
  8
0
 10
134.942
 20
4.78027
 11
125.128
 21
7.41016
  0
LINE
  8
0
 10
41.5205
 20
13.6768
 11
42.9834
 21
27.6006
  0
LINE
  8
0
 10
42.9834
 20
27.6006
 11
56.9072
 21
26.1367
  0
LINE
  8
0
 10
56.9072
 20
26.1367
 11
55.4434
 21
12.2139
  0
LINE
  8
0
 10
55.4434
 20
12.2139
 11
41.5205
 21
13.6768
  0
LINE
  8
0
 10
60.6963
 20
11.3975
 11
63.6074
 21
25.0918
  0
LINE
  8
0
 10
63.6074
 20
25.0918
 11
77.3018
 21
22.1807
  0
LINE
  8
0
 10
77.3018
 20
22.1807
 11
74.3906
 21
8.4873
  0
LINE
  8
0
 10
74.3906
 20
8.4873
 11
60.6963
 21
11.3975
  0
LINE
  8
0
 10
79.5713
 20
7.08789
 11
83.8975
 21
20.4033
  0
LINE
  8
0
 10
83.8975
 20
20.4033
 11
97.2129
 21
16.0771
  0
LINE
  8
0
 10
97.2129
 20
16.0771
 11
92.8867
 21
2.76172
  0
LINE
  8
0
 10
92.8867
 20
2.76172
 11
79.5713
 21
7.08789
  0
LINE
  8
0
 10
-1.97081
 20
17.2946
 11
-1.97081
 21
18.7053
  0
LINE
  8
0
 10
-1.97081
 20
18.7053
 11
-0.629166
 21
19.1413
  0
LINE
  8
0
 10
-0.629166
 20
19.1413
 11
0.199997
 21
18
  0
LINE
  8
0
 10
0.199997
 20
18
 11
-0.629166
 21
16.8587
  0
LINE
  8
0
 10
-0.629166
 20
16.8587
 11
-1.97081
 21
17.2946
  0
LINE
  8
0
 10
97.9463
 20
0.87207
 11
103.64
 21
13.6611
  0
LINE
  8
0
 10
103.64
 20
13.6611
 11
116.43
 21
7.9668
  0
LINE
  8
0
 10
116.43
 20
7.9668
 11
110.736
 21
-4.82227
  0
LINE
  8
0
 10
110.736
 20
-4.82227
 11
97.9463
 21
0.87207
  0
LINE
  8
0
 10
61.0292
 20
5.29465
 11
61.0292
 21
6.70534
  0
LINE
  8
0
 10
61.0292
 20
6.70534
 11
62.3708
 21
7.14127
  0
LINE
  8
0
 10
62.3708
 20
7.14127
 11
63.2
 21
6
  0
LINE
  8
0
 10
63.2
 20
6
 11
62.3708
 21
4.85872
  0
LINE
  8
0
 10
62.3708
 20
4.85872
 11
61.0292
 21
5.29465
  0
LINE
  8
0
 10
115.609
 20
-7.28613
 11
122.609
 21
4.83789
  0
LINE
  8
0
 10
122.609
 20
4.83789
 11
134.733
 21
-2.16211
  0
LINE
  8
0
 10
134.733
 20
-2.16211
 11
127.733
 21
-14.2861
  0
LINE
  8
0
 10
127.733
 20
-14.2861
 11
115.609
 21
-7.28613
  0
LINE
  8
0
 10
128.029
 20
-19.7053
 11
128.029
 21
-18.2946
  0
LINE
  8
0
 10
128.029
 20
-18.2946
 11
129.371
 21
-17.8587
  0
LINE
  8
0
 10
129.371
 20
-17.8587
 11
130.2
 21
-19
  0
LINE
  8
0
 10
130.2
 20
-19
 11
129.371
 21
-20.1413
  0
LINE
  8
0
 10
129.371
 20
-20.1413
 11
128.029
 21
-19.7053
  0
ENDSEC
  0
SECTION
  2
OBJECTS
  0
DICTIONARY
  0
ENDSEC
  0
EOF
