  0
SECTION
  2
HEADER
  9
$ANGBASE
  50
0.0
  9
$ANGDIR
  70
1
  9
$MEASUREMENT
  70
1
  0
ENDSEC
  0
SECTION
  2
TABLES
  0
TABLE
  2
LTYPE
  70
4
  0
LTYPE
  5
40F
  2
CONTINUOUS
  70
0
  3
Solid line
  72
65
  73
0
  40
0.0
  0
LTYPE
  5
410
  2
DASHDOT
 70
0
  3
Dash Dot ____ _ ____ _
 72
65
 73
4
 40
2.0
 49
1.25
 49
-0.25
 49
0.25
 49
-0.25
  0
LTYPE
  5
411
  2
DASHED
 70
0
  3
Dashed __ __ __ __ __
 72
65
 73
2
 40
0.75
 49
0.5
 49
-0.25
  0
LTYPE
  5
43B
  2
DOTTED
 70
0
  3
Dotted .  .  .  .
 72
65
 73
2
 40
0.2
 49
0.0
 49
-0.2
  0
ENDTAB
  0
TABLE
  2
STYLE
  70
4
  0
STYLE
  2
KICAD
  70
0
  40
0
  41
1
  42
1
  50
0
  71
0
  3
isocp.shx
  0
STYLE
  2
KICADB
  70
0
  40
0
  41
1
  42
1
  50
0
  71
0
  3
isocp.shx
  0
STYLE
  2
KICADI
  70
0
  40
0
  41
1
  42
1
  50
15
  71
0
  3
isocp.shx
  0
STYLE
  2
KICADBI
  70
0
  40
0
  41
1
  42
1
  50
15
  71
0
  3
isocp.shx
  0
ENDTAB
  0
TABLE
  2
LAYER
  70
1
  0
LAYER
  2
BLACK
  70
0
  62
7
  6
CONTINUOUS
  0
ENDTAB
  0
ENDSEC
  0
SECTION
  2
ENTITIES
0
LINE
8
BLACK
6
CONTINUOUS
10
231.451
20
12.2138
11
229.987
21
26.1371
0
LINE
8
BLACK
6
CONTINUOUS
10
245.374
20
13.6772
11
231.451
21
12.2138
0
LINE
8
BLACK
6
CONTINUOUS
10
243.911
20
27.6005
11
245.374
21
13.6772
0
LINE
8
BLACK
6
CONTINUOUS
10
229.987
20
26.1371
11
243.911
21
27.6005
0
LINE
8
BLACK
6
CONTINUOUS
10
212.367
20
8.46158
11
209.457
21
22.1557
0
LINE
8
BLACK
6
CONTINUOUS
10
226.061
20
11.3723
11
212.367
21
8.46158
0
LINE
8
BLACK
6
CONTINUOUS
10
223.151
20
25.0664
11
226.061
21
11.3723
0
LINE
8
BLACK
6
CONTINUOUS
10
209.457
20
22.1557
11
223.151
21
25.0664
0
LINE
8
BLACK
6
CONTINUOUS
10
193.834
20
2.79998
11
189.507
21
16.1148
0
LINE
8
BLACK
6
CONTINUOUS
10
207.149
20
7.12622
11
193.834
21
2.79998
0
LINE
8
BLACK
6
CONTINUOUS
10
202.822
20
20.441
11
207.149
21
7.12622
0
LINE
8
BLACK
6
CONTINUOUS
10
189.507
20
16.1148
11
202.822
21
20.441
0
LINE
8
BLACK
6
CONTINUOUS
10
176.048
20
-4.79697
11
170.354
21
7.99266
0
LINE
8
BLACK
6
CONTINUOUS
10
188.837
20
0.897338
11
176.048
21
-4.79697
0
LINE
8
BLACK
6
CONTINUOUS
10
183.143
20
13.687
11
188.837
21
0.897338
0
LINE
8
BLACK
6
CONTINUOUS
10
170.354
20
7.99266
11
183.143
21
13.687
0
LINE
8
BLACK
6
CONTINUOUS
10
159.126
20
-14.1977
11
152.126
21
-2.07332
0
LINE
8
BLACK
6
CONTINUOUS
10
171.251
20
-7.19768
11
159.126
21
-14.1977
0
LINE
8
BLACK
6
CONTINUOUS
10
164.251
20
4.92668
11
171.251
21
-7.19768
0
LINE
8
BLACK
6
CONTINUOUS
10
152.126
20
-2.07332
11
164.251
21
4.92668
0
LINE
8
BLACK
6
CONTINUOUS
10
270.348
20
21.575
11
270.348
21
35.575
0
LINE
8
BLACK
6
CONTINUOUS
10
284.348
20
21.575
11
270.348
21
21.575
0
LINE
8
BLACK
6
CONTINUOUS
10
284.348
20
35.575
11
284.348
21
21.575
0
LINE
8
BLACK
6
CONTINUOUS
10
270.348
20
35.575
11
284.348
21
35.575
0
LINE
8
BLACK
6
CONTINUOUS
10
250.191
20
20.6806
11
249.459
21
34.6614
0
LINE
8
BLACK
6
CONTINUOUS
10
264.172
20
21.4133
11
250.191
21
20.6806
0
LINE
8
BLACK
6
CONTINUOUS
10
263.44
20
35.3941
11
264.172
21
21.4133
0
LINE
8
BLACK
6
CONTINUOUS
10
249.459
20
34.6614
11
263.44
21
35.3941
0
LINE
8
BLACK
6
CONTINUOUS
10
229.459
20
31.1595
11
227.996
21
45.0828
0
LINE
8
BLACK
6
CONTINUOUS
10
243.383
20
32.6229
11
229.459
21
31.1595
0
LINE
8
BLACK
6
CONTINUOUS
10
241.919
20
46.5462
11
243.383
21
32.6229
0
LINE
8
BLACK
6
CONTINUOUS
10
227.996
20
45.0828
11
241.919
21
46.5462
0
LINE
8
BLACK
6
CONTINUOUS
10
209.507
20
28.163
11
207.317
21
41.9907
0
LINE
8
BLACK
6
CONTINUOUS
10
223.334
20
30.3531
11
209.507
21
28.163
0
LINE
8
BLACK
6
CONTINUOUS
10
221.144
20
44.1807
11
223.334
21
30.3531
0
LINE
8
BLACK
6
CONTINUOUS
10
207.317
20
41.9907
11
221.144
21
44.1807
0
LINE
8
BLACK
6
CONTINUOUS
10
189.738
20
24.1264
11
186.828
21
37.8205
0
LINE
8
BLACK
6
CONTINUOUS
10
203.432
20
27.0372
11
189.738
21
24.1264
0
LINE
8
BLACK
6
CONTINUOUS
10
200.522
20
40.7313
11
203.432
21
27.0372
0
LINE
8
BLACK
6
CONTINUOUS
10
186.828
20
37.8205
11
200.522
21
40.7313
0
LINE
8
BLACK
6
CONTINUOUS
10
170.358
20
19.0938
11
166.735
21
32.6168
0
LINE
8
BLACK
6
CONTINUOUS
10
183.881
20
22.7173
11
170.358
21
19.0938
0
LINE
8
BLACK
6
CONTINUOUS
10
180.258
20
36.2402
11
183.881
21
22.7173
0
LINE
8
BLACK
6
CONTINUOUS
10
166.735
20
32.6168
11
180.258
21
36.2402
0
LINE
8
BLACK
6
CONTINUOUS
10
270.348
20
40.625
11
270.348
21
54.625
0
LINE
8
BLACK
6
CONTINUOUS
10
284.348
20
40.625
11
270.348
21
40.625
0
LINE
8
BLACK
6
CONTINUOUS
10
284.348
20
54.625
11
284.348
21
40.625
0
LINE
8
BLACK
6
CONTINUOUS
10
270.348
20
54.625
11
284.348
21
54.625
0
LINE
8
BLACK
6
CONTINUOUS
10
249.194
20
39.7045
11
248.462
21
53.6853
0
LINE
8
BLACK
6
CONTINUOUS
10
263.175
20
40.4372
11
249.194
21
39.7045
0
LINE
8
BLACK
6
CONTINUOUS
10
262.443
20
54.418
11
263.175
21
40.4372
0
LINE
8
BLACK
6
CONTINUOUS
10
248.462
20
53.6853
11
262.443
21
54.418
0
LINE
8
BLACK
6
CONTINUOUS
10
227.468
20
50.1051
11
226.005
21
64.0284
0
LINE
8
BLACK
6
CONTINUOUS
10
241.391
20
51.5685
11
227.468
21
50.1051
0
LINE
8
BLACK
6
CONTINUOUS
10
239.928
20
65.4918
11
241.391
21
51.5685
0
LINE
8
BLACK
6
CONTINUOUS
10
226.005
20
64.0284
11
239.928
21
65.4918
0
LINE
8
BLACK
6
CONTINUOUS
10
206.527
20
46.9785
11
204.337
21
60.8061
0
LINE
8
BLACK
6
CONTINUOUS
10
220.354
20
49.1686
11
206.527
21
46.9785
0
LINE
8
BLACK
6
CONTINUOUS
10
218.164
20
62.9962
11
220.354
21
49.1686
0
LINE
8
BLACK
6
CONTINUOUS
10
204.337
20
60.8061
11
218.164
21
62.9962
0
LINE
8
BLACK
6
CONTINUOUS
10
185.778
20
42.7602
11
182.867
21
56.4542
0
LINE
8
BLACK
6
CONTINUOUS
10
199.472
20
45.6709
11
185.778
21
42.7602
0
LINE
8
BLACK
6
CONTINUOUS
10
196.561
20
59.365
11
199.472
21
45.6709
0
LINE
8
BLACK
6
CONTINUOUS
10
182.867
20
56.4542
11
196.561
21
59.365
0
LINE
8
BLACK
6
CONTINUOUS
10
165.428
20
37.4947
11
161.804
21
51.0177
0
LINE
8
BLACK
6
CONTINUOUS
10
178.951
20
41.1182
11
165.428
21
37.4947
0
LINE
8
BLACK
6
CONTINUOUS
10
175.327
20
54.6411
11
178.951
21
41.1182
0
LINE
8
BLACK
6
CONTINUOUS
10
161.804
20
51.0177
11
175.327
21
54.6411
0
LINE
8
BLACK
6
CONTINUOUS
10
270.348
20
59.675
11
270.348
21
73.675
0
LINE
8
BLACK
6
CONTINUOUS
10
284.348
20
59.675
11
270.348
21
59.675
0
LINE
8
BLACK
6
CONTINUOUS
10
284.348
20
73.675
11
284.348
21
59.675
0
LINE
8
BLACK
6
CONTINUOUS
10
270.348
20
73.675
11
284.348
21
73.675
0
LINE
8
BLACK
6
CONTINUOUS
10
248.197
20
58.7284
11
247.465
21
72.7092
0
LINE
8
BLACK
6
CONTINUOUS
10
262.178
20
59.4611
11
248.197
21
58.7284
0
LINE
8
BLACK
6
CONTINUOUS
10
261.446
20
73.4419
11
262.178
21
59.4611
0
LINE
8
BLACK
6
CONTINUOUS
10
247.465
20
72.7092
11
261.446
21
73.4419
0
LINE
8
BLACK
6
CONTINUOUS
10
225.477
20
69.0508
11
224.013
21
82.9741
0
LINE
8
BLACK
6
CONTINUOUS
10
239.4
20
70.5142
11
225.477
21
69.0508
0
LINE
8
BLACK
6
CONTINUOUS
10
237.937
20
84.4375
11
239.4
21
70.5142
0
LINE
8
BLACK
6
CONTINUOUS
10
224.013
20
82.9741
11
237.937
21
84.4375
0
LINE
8
BLACK
6
CONTINUOUS
10
203.547
20
65.794
11
201.357
21
79.6216
0
LINE
8
BLACK
6
CONTINUOUS
10
217.374
20
67.984
11
203.547
21
65.794
0
LINE
8
BLACK
6
CONTINUOUS
10
215.184
20
81.8117
11
217.374
21
67.984
0
LINE
8
BLACK
6
CONTINUOUS
10
201.357
20
79.6216
11
215.184
21
81.8117
0
LINE
8
BLACK
6
CONTINUOUS
10
181.817
20
61.3939
11
178.906
21
75.0879
0
LINE
8
BLACK
6
CONTINUOUS
10
195.511
20
64.3046
11
181.817
21
61.3939
0
LINE
8
BLACK
6
CONTINUOUS
10
192.6
20
77.9987
11
195.511
21
64.3046
0
LINE
8
BLACK
6
CONTINUOUS
10
178.906
20
75.0879
11
192.6
21
77.9987
0
LINE
8
BLACK
6
CONTINUOUS
10
160.497
20
55.8956
11
156.874
21
69.4185
0
LINE
8
BLACK
6
CONTINUOUS
10
174.02
20
59.519
11
160.497
21
55.8956
0
LINE
8
BLACK
6
CONTINUOUS
10
170.397
20
73.042
11
174.02
21
59.519
0
LINE
8
BLACK
6
CONTINUOUS
10
156.874
20
69.4185
11
170.397
21
73.042
0
LINE
8
BLACK
6
CONTINUOUS
10
146.483
20
25.6351
11
156.297
21
28.2647
0
LINE
8
BLACK
6
CONTINUOUS
10
156.297
20
28.2647
11
161.885
21
7.41033
0
LINE
8
BLACK
6
CONTINUOUS
10
161.885
20
7.41033
11
152.071
21
4.78073
0
LINE
8
BLACK
6
CONTINUOUS
10
152.071
20
4.78073
11
146.483
21
25.6351
  0
ENDSEC
  0
EOF
