  0
SECTION
  2
HEADER
  9
$ANGBASE
  50
0.0
  9
$ANGDIR
  70
1
  9
$MEASUREMENT
  70
1
  0
ENDSEC
  0
SECTION
  2
TABLES
  0
TABLE
  2
LTYPE
  70
4
  0
LTYPE
  5
40F
  2
CONTINUOUS
  70
0
  3
Solid line
  72
65
  73
0
  40
0.0
  0
LTYPE
  5
410
  2
DASHDOT
 70
0
  3
Dash Dot ____ _ ____ _
 72
65
 73
4
 40
2.0
 49
1.25
 49
-0.25
 49
0.25
 49
-0.25
  0
LTYPE
  5
411
  2
DASHED
 70
0
  3
Dashed __ __ __ __ __
 72
65
 73
2
 40
0.75
 49
0.5
 49
-0.25
  0
LTYPE
  5
43B
  2
DOTTED
 70
0
  3
Dotted .  .  .  .
 72
65
 73
2
 40
0.2
 49
0.0
 49
-0.2
  0
ENDTAB
  0
TABLE
  2
STYLE
  70
4
  0
STYLE
  2
KICAD
  70
0
  40
0
  41
1
  42
1
  50
0
  71
0
  3
isocp.shx
  0
STYLE
  2
KICADB
  70
0
  40
0
  41
1
  42
1
  50
0
  71
0
  3
isocp.shx
  0
STYLE
  2
KICADI
  70
0
  40
0
  41
1
  42
1
  50
15
  71
0
  3
isocp.shx
  0
STYLE
  2
KICADBI
  70
0
  40
0
  41
1
  42
1
  50
15
  71
0
  3
isocp.shx
  0
ENDTAB
  0
TABLE
  2
LAYER
  70
1
  0
LAYER
  2
BLACK
  70
0
  62
7
  6
CONTINUOUS
  0
ENDTAB
  0
ENDSEC
  0
SECTION
  2
ENTITIES
0
LINE
8
BLACK
6
CONTINUOUS
10
156.443
20
81.1478
11
138.042
21
86.0783
0
LINE
8
BLACK
6
CONTINUOUS
10
143.623
20
33.3055
11
156.443
21
81.1478
0
LINE
8
BLACK
6
CONTINUOUS
10
125.222
20
38.236
11
143.623
21
33.3055
0
LINE
8
BLACK
6
CONTINUOUS
10
138.042
20
86.0783
11
125.222
21
38.236
0
LINE
8
BLACK
6
CONTINUOUS
10
122.609
20
4.83778
11
134.733
21
-2.16222
0
LINE
8
BLACK
6
CONTINUOUS
10
134.733
20
-2.16222
11
127.733
21
-14.2866
0
LINE
8
BLACK
6
CONTINUOUS
10
127.733
20
-14.2866
11
115.609
21
-7.28658
0
LINE
8
BLACK
6
CONTINUOUS
10
115.609
20
-7.28658
11
122.609
21
4.83778
0
LINE
8
BLACK
6
CONTINUOUS
10
103.64
20
13.6616
11
116.43
21
7.96726
0
LINE
8
BLACK
6
CONTINUOUS
10
116.43
20
7.96726
11
110.736
21
-4.82238
0
LINE
8
BLACK
6
CONTINUOUS
10
110.736
20
-4.82238
11
97.946
21
0.871938
0
LINE
8
BLACK
6
CONTINUOUS
10
97.946
20
0.871938
11
103.64
21
13.6616
0
LINE
8
BLACK
6
CONTINUOUS
10
83.8977
20
20.4029
11
97.2125
21
16.0767
0
LINE
8
BLACK
6
CONTINUOUS
10
97.2125
20
16.0767
11
92.8863
21
2.76188
0
LINE
8
BLACK
6
CONTINUOUS
10
92.8863
20
2.76188
11
79.5715
21
7.08812
0
LINE
8
BLACK
6
CONTINUOUS
10
79.5715
20
7.08812
11
83.8977
21
20.4029
0
LINE
8
BLACK
6
CONTINUOUS
10
63.6074
20
25.0918
11
77.3015
21
22.1811
0
LINE
8
BLACK
6
CONTINUOUS
10
77.3015
20
22.1811
11
74.3908
21
8.48698
0
LINE
8
BLACK
6
CONTINUOUS
10
74.3908
20
8.48698
11
60.6967
21
11.3977
0
LINE
8
BLACK
6
CONTINUOUS
10
60.6967
20
11.3977
11
63.6074
21
25.0918
0
LINE
8
BLACK
6
CONTINUOUS
10
42.9837
20
27.6005
11
56.907
21
26.1371
0
LINE
8
BLACK
6
CONTINUOUS
10
56.907
20
26.1371
11
55.4436
21
12.2138
0
LINE
8
BLACK
6
CONTINUOUS
10
55.4436
20
12.2138
11
41.5203
21
13.6772
0
LINE
8
BLACK
6
CONTINUOUS
10
41.5203
20
13.6772
11
42.9837
21
27.6005
0
LINE
8
BLACK
6
CONTINUOUS
10
106.786
20
36.1195
11
120.309
21
32.496
0
LINE
8
BLACK
6
CONTINUOUS
10
120.309
20
32.496
11
116.686
21
18.9731
0
LINE
8
BLACK
6
CONTINUOUS
10
116.686
20
18.9731
11
103.163
21
22.5966
0
LINE
8
BLACK
6
CONTINUOUS
10
103.163
20
22.5966
11
106.786
21
36.1195
0
LINE
8
BLACK
6
CONTINUOUS
10
86.3725
20
40.7313
11
100.067
21
37.8205
0
LINE
8
BLACK
6
CONTINUOUS
10
100.067
20
37.8205
11
97.1558
21
24.1264
0
LINE
8
BLACK
6
CONTINUOUS
10
97.1558
20
24.1264
11
83.4618
21
27.0372
0
LINE
8
BLACK
6
CONTINUOUS
10
83.4618
20
27.0372
11
86.3725
21
40.7313
0
LINE
8
BLACK
6
CONTINUOUS
10
65.7499
20
44.1807
11
79.5775
21
41.9907
0
LINE
8
BLACK
6
CONTINUOUS
10
79.5775
20
41.9907
11
77.3874
21
28.163
0
LINE
8
BLACK
6
CONTINUOUS
10
77.3874
20
28.163
11
63.5598
21
30.3531
0
LINE
8
BLACK
6
CONTINUOUS
10
63.5598
20
30.3531
11
65.7499
21
44.1807
0
LINE
8
BLACK
6
CONTINUOUS
10
44.9749
20
46.5462
11
58.8982
21
45.0828
0
LINE
8
BLACK
6
CONTINUOUS
10
58.8982
20
45.0828
11
57.4348
21
31.1595
0
LINE
8
BLACK
6
CONTINUOUS
10
57.4348
20
31.1595
11
43.5115
21
32.6229
0
LINE
8
BLACK
6
CONTINUOUS
10
43.5115
20
32.6229
11
44.9749
21
46.5462
0
LINE
8
BLACK
6
CONTINUOUS
10
23.4334
20
35.3941
11
37.4142
21
34.6614
0
LINE
8
BLACK
6
CONTINUOUS
10
37.4142
20
34.6614
11
36.6815
21
20.6806
0
LINE
8
BLACK
6
CONTINUOUS
10
36.6815
20
20.6806
11
22.7007
21
21.4133
0
LINE
8
BLACK
6
CONTINUOUS
10
22.7007
20
21.4133
11
23.4334
21
35.3941
0
LINE
8
BLACK
6
CONTINUOUS
10
2.525
20
35.575
11
16.525
21
35.575
0
LINE
8
BLACK
6
CONTINUOUS
10
16.525
20
35.575
11
16.525
21
21.575
0
LINE
8
BLACK
6
CONTINUOUS
10
16.525
20
21.575
11
2.525
21
21.575
0
LINE
8
BLACK
6
CONTINUOUS
10
2.525
20
21.575
11
2.525
21
35.575
0
LINE
8
BLACK
6
CONTINUOUS
10
111.717
20
54.6081
11
125.24
21
50.9847
0
LINE
8
BLACK
6
CONTINUOUS
10
125.24
20
50.9847
11
121.616
21
37.4617
0
LINE
8
BLACK
6
CONTINUOUS
10
121.616
20
37.4617
11
108.093
21
41.0852
0
LINE
8
BLACK
6
CONTINUOUS
10
108.093
20
41.0852
11
111.717
21
54.6081
0
LINE
8
BLACK
6
CONTINUOUS
10
90.3333
20
59.365
11
104.027
21
56.4542
0
LINE
8
BLACK
6
CONTINUOUS
10
104.027
20
56.4542
11
101.117
21
42.7602
0
LINE
8
BLACK
6
CONTINUOUS
10
101.117
20
42.7602
11
87.4225
21
45.6709
0
LINE
8
BLACK
6
CONTINUOUS
10
87.4225
20
45.6709
11
90.3333
21
59.365
0
LINE
8
BLACK
6
CONTINUOUS
10
68.7299
20
62.9962
11
82.5576
21
60.8061
0
LINE
8
BLACK
6
CONTINUOUS
10
82.5576
20
60.8061
11
80.3675
21
46.9785
0
LINE
8
BLACK
6
CONTINUOUS
10
80.3675
20
46.9785
11
66.5399
21
49.1686
0
LINE
8
BLACK
6
CONTINUOUS
10
66.5399
20
49.1686
11
68.7299
21
62.9962
0
LINE
8
BLACK
6
CONTINUOUS
10
46.9662
20
65.4918
11
60.8895
21
64.0284
0
LINE
8
BLACK
6
CONTINUOUS
10
60.8895
20
64.0284
11
59.4261
21
50.1051
0
LINE
8
BLACK
6
CONTINUOUS
10
59.4261
20
50.1051
11
45.5028
21
51.5685
0
LINE
8
BLACK
6
CONTINUOUS
10
45.5028
20
51.5685
11
46.9662
21
65.4918
0
LINE
8
BLACK
6
CONTINUOUS
10
24.4304
20
54.418
11
38.4112
21
53.6853
0
LINE
8
BLACK
6
CONTINUOUS
10
38.4112
20
53.6853
11
37.6785
21
39.7045
0
LINE
8
BLACK
6
CONTINUOUS
10
37.6785
20
39.7045
11
23.6977
21
40.4372
0
LINE
8
BLACK
6
CONTINUOUS
10
23.6977
20
40.4372
11
24.4304
21
54.418
0
LINE
8
BLACK
6
CONTINUOUS
10
2.525
20
54.625
11
16.525
21
54.625
0
LINE
8
BLACK
6
CONTINUOUS
10
16.525
20
54.625
11
16.525
21
40.625
0
LINE
8
BLACK
6
CONTINUOUS
10
16.525
20
40.625
11
2.525
21
40.625
0
LINE
8
BLACK
6
CONTINUOUS
10
2.525
20
40.625
11
2.525
21
54.625
0
LINE
8
BLACK
6
CONTINUOUS
10
116.647
20
73.009
11
130.17
21
69.3855
0
LINE
8
BLACK
6
CONTINUOUS
10
130.17
20
69.3855
11
126.547
21
55.8626
0
LINE
8
BLACK
6
CONTINUOUS
10
126.547
20
55.8626
11
113.024
21
59.486
0
LINE
8
BLACK
6
CONTINUOUS
10
113.024
20
59.486
11
116.647
21
73.009
0
LINE
8
BLACK
6
CONTINUOUS
10
94.294
20
77.9987
11
107.988
21
75.0879
0
LINE
8
BLACK
6
CONTINUOUS
10
107.988
20
75.0879
11
105.077
21
61.3939
0
LINE
8
BLACK
6
CONTINUOUS
10
105.077
20
61.3939
11
91.3832
21
64.3046
0
LINE
8
BLACK
6
CONTINUOUS
10
91.3832
20
64.3046
11
94.294
21
77.9987
0
LINE
8
BLACK
6
CONTINUOUS
10
71.71
20
81.8117
11
85.5377
21
79.6216
0
LINE
8
BLACK
6
CONTINUOUS
10
85.5377
20
79.6216
11
83.3476
21
65.794
0
LINE
8
BLACK
6
CONTINUOUS
10
83.3476
20
65.794
11
69.5199
21
67.984
0
LINE
8
BLACK
6
CONTINUOUS
10
69.5199
20
67.984
11
71.71
21
81.8117
0
LINE
8
BLACK
6
CONTINUOUS
10
48.9575
20
84.4375
11
62.8808
21
82.9741
0
LINE
8
BLACK
6
CONTINUOUS
10
62.8808
20
82.9741
11
61.4174
21
69.0508
0
LINE
8
BLACK
6
CONTINUOUS
10
61.4174
20
69.0508
11
47.4941
21
70.5142
0
LINE
8
BLACK
6
CONTINUOUS
10
47.4941
20
70.5142
11
48.9575
21
84.4375
0
LINE
8
BLACK
6
CONTINUOUS
10
25.4274
20
73.4419
11
39.4082
21
72.7092
0
LINE
8
BLACK
6
CONTINUOUS
10
39.4082
20
72.7092
11
38.6755
21
58.7284
0
LINE
8
BLACK
6
CONTINUOUS
10
38.6755
20
58.7284
11
24.6947
21
59.4611
0
LINE
8
BLACK
6
CONTINUOUS
10
24.6947
20
59.4611
11
25.4274
21
73.4419
0
LINE
8
BLACK
6
CONTINUOUS
10
2.525
20
73.675
11
16.525
21
73.675
0
LINE
8
BLACK
6
CONTINUOUS
10
16.525
20
73.675
11
16.525
21
59.675
0
LINE
8
BLACK
6
CONTINUOUS
10
16.525
20
59.675
11
2.525
21
59.675
0
LINE
8
BLACK
6
CONTINUOUS
10
2.525
20
59.675
11
2.525
21
73.675
0
LINE
8
BLACK
6
CONTINUOUS
10
125.128
20
7.41033
11
130.716
21
28.2647
0
LINE
8
BLACK
6
CONTINUOUS
10
134.942
20
4.78073
11
125.128
21
7.41033
0
LINE
8
BLACK
6
CONTINUOUS
10
140.53
20
25.6351
11
134.942
21
4.78073
0
LINE
8
BLACK
6
CONTINUOUS
10
130.716
20
28.2647
11
140.53
21
25.6351
  0
ENDSEC
  0
EOF
